<svg width="251" height="80" viewBox="0 0 251 80" fill="none" xmlns="http://www.w3.org/2000/svg">
<path d="M7.78733 12.3163L14.8666 12.3163L38.2094 33.7077L38.2094 40.8313L7.78733 12.3163Z" fill="#010101"/>
<path d="M8.14695 3.24113L15.2263 3.24112L38.5691 24.6326L38.5691 31.7561L8.14695 3.24113Z" fill="#010101"/>
<path d="M70.0777 62.8709L62.6389 62.8709L39.296 41.4795L39.2959 34.3559L70.0777 62.8709Z" fill="#FA3454"/>
<path d="M70.0777 72.5942L62.6389 72.5943L39.296 51.2029L39.2959 44.0793L70.0777 72.5942Z" fill="#FA3454"/>
<path d="M13.8047 62.7968L4.95548 62.7968L33.8037 37.516L37.8596 41.2559L13.8047 62.7968Z" fill="#010101"/>
<path d="M2.29398 16.8864L8.02861 16.8864L26.9375 34.2146L26.9375 39.9851L2.29398 16.8864Z" fill="#010101"/>
<path d="M7.16838 57.7784L4.81842e-05 57.7784L23.3687 37.2996L26.6542 40.3291L7.16838 57.7784Z" fill="#010101"/>
<path d="M76.2898 18.8311L70.1913 18.8311L50.0827 36.1593L50.0827 41.9298L76.2898 18.8311Z" fill="#FA3454"/>
<path d="M71.1061 59.723L78.7293 59.7231L53.8779 39.2442L50.384 42.2737L71.1061 59.723Z" fill="#FA3454"/>
<path d="M64.4214 12.7209L73.2706 12.7209L44.4224 38.0017L40.3665 34.2619L64.4214 12.7209Z" fill="#FA3454"/>
<path d="M118.002 16.878V35H115.636V26.784H106.406V35H104.04V16.878H106.406V24.834H115.636V16.878H118.002ZM128.256 35.234C126.922 35.234 125.708 34.9307 124.616 34.324C123.542 33.7173 122.692 32.8593 122.068 31.75C121.462 30.6233 121.158 29.3233 121.158 27.85C121.158 26.394 121.47 25.1113 122.094 24.002C122.736 22.8753 123.602 22.0173 124.694 21.428C125.786 20.8213 127.008 20.518 128.36 20.518C129.712 20.518 130.934 20.8213 132.026 21.428C133.118 22.0173 133.976 22.8667 134.6 23.976C135.242 25.0853 135.562 26.3767 135.562 27.85C135.562 29.3233 135.233 30.6233 134.574 31.75C133.933 32.8593 133.058 33.7173 131.948 34.324C130.839 34.9307 129.608 35.234 128.256 35.234ZM128.256 33.154C129.106 33.154 129.903 32.9547 130.648 32.556C131.394 32.1573 131.992 31.5593 132.442 30.762C132.91 29.9647 133.144 28.994 133.144 27.85C133.144 26.706 132.919 25.7353 132.468 24.938C132.018 24.1407 131.428 23.5513 130.7 23.17C129.972 22.7713 129.184 22.572 128.334 22.572C127.468 22.572 126.67 22.7713 125.942 23.17C125.232 23.5513 124.66 24.1407 124.226 24.938C123.793 25.7353 123.576 26.706 123.576 27.85C123.576 29.0113 123.784 29.9907 124.2 30.788C124.634 31.5853 125.206 32.1833 125.916 32.582C126.627 32.9633 127.407 33.154 128.256 33.154ZM137.789 27.824C137.789 26.368 138.084 25.094 138.673 24.002C139.262 22.8927 140.068 22.0347 141.091 21.428C142.131 20.8213 143.284 20.518 144.549 20.518C145.797 20.518 146.88 20.7867 147.799 21.324C148.718 21.8613 149.402 22.5373 149.853 23.352V20.752H152.245V35H149.853V32.348C149.385 33.18 148.683 33.8733 147.747 34.428C146.828 34.9653 145.754 35.234 144.523 35.234C143.258 35.234 142.114 34.922 141.091 34.298C140.068 33.674 139.262 32.7987 138.673 31.672C138.084 30.5453 137.789 29.2627 137.789 27.824ZM149.853 27.85C149.853 26.7753 149.636 25.8393 149.203 25.042C148.77 24.2447 148.18 23.638 147.435 23.222C146.707 22.7887 145.901 22.572 145.017 22.572C144.133 22.572 143.327 22.78 142.599 23.196C141.871 23.612 141.29 24.2187 140.857 25.016C140.424 25.8133 140.207 26.7493 140.207 27.824C140.207 28.916 140.424 29.8693 140.857 30.684C141.29 31.4813 141.871 32.0967 142.599 32.53C143.327 32.946 144.133 33.154 145.017 33.154C145.901 33.154 146.707 32.946 147.435 32.53C148.18 32.0967 148.77 31.4813 149.203 30.684C149.636 29.8693 149.853 28.9247 149.853 27.85ZM163.679 35L160.299 29.696L157.049 35H154.579L159.181 27.928L154.579 20.752H157.257L160.637 26.03L163.861 20.752H166.331L161.755 27.798L166.357 35H163.679Z" fill="black"/>
<path d="M103.088 57.5C103.088 55.44 103.548 53.6 104.468 51.98C105.408 50.34 106.678 49.07 108.278 48.17C109.898 47.25 111.708 46.79 113.708 46.79C116.048 46.79 118.098 47.39 119.858 48.59C121.618 49.79 122.848 51.45 123.548 53.57H118.718C118.238 52.57 117.558 51.82 116.678 51.32C115.818 50.82 114.818 50.57 113.678 50.57C112.458 50.57 111.368 50.86 110.408 51.44C109.468 52 108.728 52.8 108.188 53.84C107.668 54.88 107.408 56.1 107.408 57.5C107.408 58.88 107.668 60.1 108.188 61.16C108.728 62.2 109.468 63.01 110.408 63.59C111.368 64.15 112.458 64.43 113.678 64.43C114.818 64.43 115.818 64.18 116.678 63.68C117.558 63.16 118.238 62.4 118.718 61.4H123.548C122.848 63.54 121.618 65.21 119.858 66.41C118.118 67.59 116.068 68.18 113.708 68.18C111.708 68.18 109.898 67.73 108.278 66.83C106.678 65.91 105.408 64.64 104.468 63.02C103.548 61.4 103.088 59.56 103.088 57.5ZM136.496 51.14C137.756 51.14 138.876 51.42 139.856 51.98C140.836 52.52 141.596 53.33 142.136 54.41C142.696 55.47 142.976 56.75 142.976 58.25V68H138.776V58.82C138.776 57.5 138.446 56.49 137.786 55.79C137.126 55.07 136.226 54.71 135.086 54.71C133.926 54.71 133.006 55.07 132.326 55.79C131.666 56.49 131.336 57.5 131.336 58.82V68H127.136V45.8H131.336V53.45C131.876 52.73 132.596 52.17 133.496 51.77C134.396 51.35 135.396 51.14 136.496 51.14ZM145.89 59.63C145.89 57.95 146.22 56.46 146.88 55.16C147.56 53.86 148.47 52.86 149.61 52.16C150.77 51.46 152.06 51.11 153.48 51.11C154.72 51.11 155.8 51.36 156.72 51.86C157.66 52.36 158.41 52.99 158.97 53.75V51.38H163.2V68H158.97V65.57C158.43 66.35 157.68 67 156.72 67.52C155.78 68.02 154.69 68.27 153.45 68.27C152.05 68.27 150.77 67.91 149.61 67.19C148.47 66.47 147.56 65.46 146.88 64.16C146.22 62.84 145.89 61.33 145.89 59.63ZM158.97 59.69C158.97 58.67 158.77 57.8 158.37 57.08C157.97 56.34 157.43 55.78 156.75 55.4C156.07 55 155.34 54.8 154.56 54.8C153.78 54.8 153.06 54.99 152.4 55.37C151.74 55.75 151.2 56.31 150.78 57.05C150.38 57.77 150.18 58.63 150.18 59.63C150.18 60.63 150.38 61.51 150.78 62.27C151.2 63.01 151.74 63.58 152.4 63.98C153.08 64.38 153.8 64.58 154.56 64.58C155.34 64.58 156.07 64.39 156.75 64.01C157.43 63.61 157.97 63.05 158.37 62.33C158.77 61.59 158.97 60.71 158.97 59.69ZM173.662 68.27C172.302 68.27 171.082 68.03 170.002 67.55C168.922 67.05 168.062 66.38 167.422 65.54C166.802 64.7 166.462 63.77 166.402 62.75H170.632C170.712 63.39 171.022 63.92 171.562 64.34C172.122 64.76 172.812 64.97 173.632 64.97C174.432 64.97 175.052 64.81 175.492 64.49C175.952 64.17 176.182 63.76 176.182 63.26C176.182 62.72 175.902 62.32 175.342 62.06C174.802 61.78 173.932 61.48 172.732 61.16C171.492 60.86 170.472 60.55 169.672 60.23C168.892 59.91 168.212 59.42 167.632 58.76C167.072 58.1 166.792 57.21 166.792 56.09C166.792 55.17 167.052 54.33 167.572 53.57C168.112 52.81 168.872 52.21 169.852 51.77C170.852 51.33 172.022 51.11 173.362 51.11C175.342 51.11 176.922 51.61 178.102 52.61C179.282 53.59 179.932 54.92 180.052 56.6H176.032C175.972 55.94 175.692 55.42 175.192 55.04C174.712 54.64 174.062 54.44 173.242 54.44C172.482 54.44 171.892 54.58 171.472 54.86C171.072 55.14 170.872 55.53 170.872 56.03C170.872 56.59 171.152 57.02 171.712 57.32C172.272 57.6 173.142 57.89 174.322 58.19C175.522 58.49 176.512 58.8 177.292 59.12C178.072 59.44 178.742 59.94 179.302 60.62C179.882 61.28 180.182 62.16 180.202 63.26C180.202 64.22 179.932 65.08 179.392 65.84C178.872 66.6 178.112 67.2 177.112 67.64C176.132 68.06 174.982 68.27 173.662 68.27ZM199.099 59.33C199.099 59.93 199.059 60.47 198.979 60.95H186.829C186.929 62.15 187.349 63.09 188.089 63.77C188.829 64.45 189.739 64.79 190.819 64.79C192.379 64.79 193.489 64.12 194.149 62.78H198.679C198.199 64.38 197.279 65.7 195.919 66.74C194.559 67.76 192.889 68.27 190.909 68.27C189.309 68.27 187.869 67.92 186.589 67.22C185.329 66.5 184.339 65.49 183.619 64.19C182.919 62.89 182.569 61.39 182.569 59.69C182.569 57.97 182.919 56.46 183.619 55.16C184.319 53.86 185.299 52.86 186.559 52.16C187.819 51.46 189.269 51.11 190.909 51.11C192.489 51.11 193.899 51.45 195.139 52.13C196.399 52.81 197.369 53.78 198.049 55.04C198.749 56.28 199.099 57.71 199.099 59.33ZM194.749 58.13C194.729 57.05 194.339 56.19 193.579 55.55C192.819 54.89 191.889 54.56 190.789 54.56C189.749 54.56 188.869 54.88 188.149 55.52C187.449 56.14 187.019 57.01 186.859 58.13H194.749ZM206.365 53.96C206.905 53.08 207.605 52.39 208.465 51.89C209.345 51.39 210.345 51.14 211.465 51.14V55.55H210.355C209.035 55.55 208.035 55.86 207.355 56.48C206.695 57.1 206.365 58.18 206.365 59.72V68H202.165V51.38H206.365V53.96Z" fill="#FA3454"/>
</svg>
