<svg width="66" height="64" viewBox="0 0 66 64" fill="none" xmlns="http://www.w3.org/2000/svg">
<path d="M6.45531 10.7095L12.3237 10.7095L31.6736 28.4419L31.6736 34.347L6.45531 10.7095Z" fill="#010101"/>
<path d="M6.75329 3.18672L12.6217 3.18671L31.9716 20.9191L31.9716 26.8242L6.75329 3.18672Z" fill="#010101"/>
<path d="M58.0907 52.6166L51.9242 52.6167L32.5742 34.8843L32.5742 28.9793L58.0907 52.6166Z" fill="#FA3454"/>
<path d="M58.0907 60.6768L51.9242 60.6768L32.5742 42.9445L32.5742 37.0394L58.0907 60.6768Z" fill="#FA3454"/>
<path d="M11.4434 52.5552L4.10786 52.5552L28.0215 31.5988L31.3837 34.6989L11.4434 52.5552Z" fill="#010101"/>
<path d="M1.9015 14.498L6.65521 14.4979L22.3297 28.8621L22.3297 33.6456L1.9015 14.498Z" fill="#010101"/>
<path d="M5.94223 48.3952L5.85547e-05 48.3953L19.3714 31.4194L22.0949 33.9307L5.94223 48.3952Z" fill="#010101"/>
<path d="M63.2403 16.11L58.185 16.11L41.5159 30.4742L41.5159 35.2576L63.2403 16.11Z" fill="#FA3454"/>
<path d="M58.9433 50.0073L65.2625 50.0073L44.662 33.0314L41.7657 35.5427L58.9433 50.0073Z" fill="#FA3454"/>
<path d="M53.402 11.045L60.7375 11.045L36.8238 32.0014L33.4617 28.9013L53.402 11.045Z" fill="#FA3454"/>
</svg>
